<?xml version="1.0" encoding="UTF-8"?>
<svg id="Layer_1" data-name="Layer 1" xmlns="http://www.w3.org/2000/svg" viewBox="0 0 11 11">
  <defs>
    <style>
      .cls-1 {
        fill: #434fa2;
      }

      .cls-2 {
        fill: none;
        stroke: #434fa2;
        stroke-miterlimit: 10;
      }
    </style>
  </defs>
  <circle class="cls-2" cx="5.5" cy="5.5" r="5"/>
  <path class="cls-1" d="M4.48,4.24c.33-.1,.59-.39,.67-.72s-.07-.71-.34-.93-.61-.25-.93-.16c-.38,.11-.74,.36-.99,.66-.23,.27-.34,.61-.31,.96,.03,.41,.19,.79,.35,1.16,.18,.42,.4,.82,.65,1.19s.53,.72,.84,1.05c.29,.31,.61,.6,.97,.82,.32,.19,.69,.33,1.07,.35s.8-.08,1.14-.28,.62-.49,.76-.85c.13-.33,.13-.71-.03-1.02s-.47-.52-.82-.52c-.2,0-.4,.07-.55,.2-.14,.13-.21,.3-.26,.48-.08,.3-.16,.68-.49,.8-.27,.09-.56-.08-.77-.25-.33-.27-.62-.59-.88-.93s-.52-.73-.7-1.14c-.08-.17-.15-.35-.15-.53,0-.18,.09-.34,.26-.42,.15-.07,.33-.04,.46,.06"/>
</svg>